<?xml version="1.0" encoding="UTF-8" ?>
<!-- Sure Cuts A Lot -->
<!DOCTYPE svg PUBLIC "-//W3C//DTD SVG 1.1//EN" "http://www.w3.org/Graphics/SVG/1.1/DTD/svg11.dtd">
<svg version="1.1" xmlns="http://www.w3.org/2000/svg" xmlns:xlink="http://www.w3.org/1999/xlink" xmlns:scal="http://www.craftedge.com/namespaces/surecutsalot" scal:dpi="72" viewBox="200 100 450 450" xml:space="preserve">
<g id="">
</g>
<g id="">
</g>
<g id="">
<path style="fill-rule:evenodd;fill:#000000;stroke:#000000;" d="M 204.406 318.037 C 204.406 198.743 301.113 102.037 420.406 102.037 C 539.7 102.037 636.406 198.743 636.406 318.037 C 636.406 437.33 539.7 534.037 420.406 534.037 C 301.113 534.037 204.406 437.33 204.406 318.037 z"/>
<path style="fill-rule:evenodd;fill:#C36F44;stroke:#000000;" d="M 566.46 352.417 C 567.584 354.493 568.122 356.82 568.78 359.072 C 570.889 367.061 572.473 375.18 573.881 383.319 C 574.825 388.975 575.714 394.647 576.261 400.357 C 576.797 407.764 576.839 415.195 576.828 422.617 C 576.77 430.992 576.631 439.375 575.985 447.727 C 575.791 449.486 575.731 451.296 575.163 452.984 C 574.063 454.974 572.461 456.626 570.983 458.337 C 565.63 464.201 559.89 469.707 553.932 474.953 C 545.027 482.669 535.287 489.387 525.112 495.315 C 509.667 504.257 493.159 511.387 476.015 516.362 C 463.595 519.95 450.8 522.372 437.873 523.017 C 433.16 523.321 428.452 523.69 423.75 524.129 C 422.927 524.162 422.06 524.289 421.26 524.094 C 420.495 523.941 421.26 523.625 421.563 523.395 C 426.394 520.278 431.559 517.718 436.368 514.563 C 443.943 509.736 450.808 503.882 457.219 497.611 C 464.374 490.668 470.932 483.117 476.85 475.095 C 484.697 464.512 491.682 453.324 498.507 442.065 C 504.874 431.563 510.921 420.871 517.362 410.413 C 523.431 400.549 529.652 390.756 536.619 381.496 C 538.788 378.577 541.125 375.786 543.638 373.155 C 549.035 367.401 554.636 361.833 560.443 356.491 C 562.13 354.999 563.766 353.42 565.658 352.185 C 566.084 351.924 566.183 352.053 566.46 352.417 zM 546.78 302.43 C 548.857 306.119 550.518 310.022 552.263 313.875 C 555.228 320.646 558.125 327.454 560.655 334.402 C 561.088 335.735 561.636 337.052 561.803 338.452 C 560.823 340.083 559.297 341.288 557.895 342.539 C 555.618 344.396 553.246 346.134 551.052 348.092 C 542.819 355.311 535.461 363.472 528.585 371.977 C 522.838 379.166 517.419 386.63 512.574 394.459 C 505.192 406.462 498.055 418.613 490.854 430.724 C 483.8 442.486 476.656 454.217 468.67 465.376 C 462.894 473.456 456.51 481.109 449.452 488.102 C 440.2 497.462 429.282 505.101 417.563 511.05 C 411.603 514.059 405.401 516.582 399.031 518.58 C 394.925 519.911 390.664 521.205 386.296 520.856 C 381.821 520.533 377.476 519.322 373.135 518.265 C 363.807 515.97 354.609 513.129 345.67 509.604 C 325.85 501.824 307.201 491.023 290.687 477.573 C 284.917 472.76 279.572 467.462 274.348 462.067 C 267.54 454.967 260.948 447.643 254.887 439.89 C 252.729 437.013 250.47 434.157 248.912 430.896 C 248.667 430.473 248.604 429.918 249.041 429.605 C 250.392 428.791 252.014 428.634 253.529 428.297 C 258.997 427.344 264.508 426.661 269.983 425.745 C 300.896 420.717 331.379 413.117 361.107 403.273 C 388.034 394.357 414.356 383.6 439.77 371.002 C 461.996 359.985 483.535 347.551 504.022 333.555 C 515.907 325.44 527.415 316.771 538.466 307.553 C 540.798 305.702 543.079 303.751 545.655 302.242 C 546.025 302.023 546.62 301.842 546.762 302.403 L 546.78 302.43 zM 595.08 340.042 C 601.836 340.182 608.375 342.684 613.931 346.443 C 617.141 348.559 619.938 351.21 622.845 353.707 C 622.008 358.481 621.317 363.289 620.063 367.978 C 617.589 377.543 614.251 386.865 610.533 396.011 C 606.767 405.173 602.611 414.196 597.667 422.787 C 595.52 426.467 593.239 430.084 590.614 433.445 C 590.247 433.855 589.928 434.341 589.41 434.572 C 589.092 433.005 589.368 431.388 589.485 429.81 C 589.907 426.237 589.734 422.627 589.643 419.04 C 589.305 409.957 588.589 400.889 587.593 391.856 C 587.03 386.631 586.269 381.428 585.226 376.276 C 583.782 368.907 582.093 361.588 580.209 354.319 C 579.591 351.671 578.796 349.029 578.678 346.297 C 578.64 345.149 579.055 343.917 580.096 343.317 C 581.799 342.304 583.789 341.946 585.654 341.335 C 588.703 340.414 591.896 339.98 595.08 340.042 zM 514.185 252.652 C 519.815 259.786 525.054 267.22 530.153 274.74 C 533.177 279.224 536.096 283.782 538.755 288.494 L 539.722 290.16 C 532.68 296.156 525.696 302.227 518.386 307.899 C 497.302 324.405 474.63 338.828 451.055 351.5 C 422.861 366.634 393.347 379.268 363.06 389.575 C 334.935 399.132 306.123 406.679 276.911 412.072 C 266.455 414 255.95 415.67 245.403 417.009 C 244.022 417.146 242.636 417.385 241.245 417.3 C 239.876 415.672 238.966 413.721 237.96 411.861 C 234.421 404.91 231.276 397.759 228.452 390.489 C 225.985 383.881 223.797 377.166 221.953 370.357 C 219.414 361.042 217.892 351.471 217.138 341.851 C 216.236 330.708 216.213 319.521 215.922 308.351 L 215.73 299.782 C 219.482 297.189 223.22 294.555 227.25 292.402 C 237.035 287.059 247.604 283.24 258.41 280.555 C 270.476 277.558 282.909 276.422 295.297 275.805 C 313.329 274.975 331.392 275.381 349.417 276.174 C 359.044 276.601 368.66 277.261 378.292 277.585 C 393.284 278.14 408.291 278.403 423.292 278.195 C 430.33 278.067 437.381 277.923 444.388 277.197 C 461.073 275.333 477.696 271.485 492.899 264.218 C 498.222 261.706 503.314 258.729 508.205 255.461 C 509.96 254.373 511.682 253.197 513.561 252.336 C 513.933 252.148 513.967 252.404 514.185 252.652 zM 605.963 230.962 C 607.062 232.297 607.636 233.969 608.366 235.518 C 613.821 248 618.368 260.924 621.2 274.265 C 624.537 289.749 625.527 305.641 625.41 321.45 C 625.363 326.579 625.333 331.719 624.861 336.831 C 624.745 337.505 624.775 338.255 624.352 338.827 C 622.999 338.383 622.31 337.003 621.126 336.287 C 617.906 334.039 614.323 332.365 610.712 330.851 C 607.829 329.656 604.826 328.724 601.723 328.324 C 596.012 327.526 590.141 327.672 584.509 328.947 C 581.526 329.646 578.644 330.763 575.619 331.28 C 574.58 331.476 573.378 331.221 572.789 330.269 C 571.705 328.535 571.17 326.53 570.37 324.66 C 566.486 315.321 562.08 306.212 557.709 297.094 L 555.518 292.515 C 562.853 284.851 570.369 277.345 577.253 269.264 C 584.423 260.953 590.979 252.122 596.976 242.931 C 599.576 239.01 602.141 235.062 604.816 231.194 C 605.121 230.798 605.536 230.588 605.963 230.962 zM 342.263 137.902 C 361.435 143.747 380.028 151.41 397.963 160.339 C 415.489 169.102 432.415 179.102 448.353 190.511 C 460.649 199.317 472.289 209.029 483.214 219.487 C 490.661 226.581 497.77 234.018 505.013 241.317 C 505.159 241.626 506.068 241.994 505.514 242.249 C 502.662 244.379 499.82 246.537 496.739 248.333 C 487.794 253.67 478.104 257.762 468.034 260.432 C 454.736 263.99 440.958 265.314 427.238 265.854 C 411.719 266.444 396.181 266.039 380.67 265.387 C 370.671 264.96 360.681 264.314 350.678 263.969 C 333.874 263.36 317.053 263.074 300.24 263.414 C 292.687 263.597 285.123 263.834 277.607 264.651 C 266.727 265.997 255.95 268.225 245.447 271.37 C 237.644 273.741 229.942 276.607 222.836 280.646 C 221.75 281.181 220.684 281.864 219.488 282.092 C 218.887 282.295 219.115 281.564 219.097 281.213 C 219.491 277.601 220.417 274.074 221.266 270.55 C 223.793 260.36 227.02 250.34 231.014 240.629 C 237.341 225.212 245.436 210.484 255.458 197.152 C 265.011 184.393 276.015 172.731 288.086 162.326 C 299.763 152.292 312.476 143.382 326.25 136.46 L 330.457 134.325 L 342.263 137.902 zM 489.952 125.625 C 503.831 130.634 517.112 137.239 529.657 144.992 C 540.767 151.89 551.312 159.76 560.715 168.867 C 569.354 177.177 577.386 186.119 584.762 195.568 C 589.079 201.103 593.113 206.865 596.675 212.916 L 598.582 216.06 C 596.493 220.017 594.486 224.022 592.118 227.823 C 587.083 236.003 581.573 243.889 575.727 251.511 C 570.915 257.751 565.714 263.679 560.471 269.559 C 556.759 273.68 552.928 277.692 549.158 281.76 C 546.119 276.921 543.192 272.008 539.928 267.315 C 534.614 259.561 529.163 251.898 523.466 244.42 C 523.23 243.759 523.654 243.032 523.876 242.399 C 525.071 239.646 527.082 237.363 528.412 234.682 C 532.596 226.711 533.99 217.528 533.588 208.605 C 533.097 198.072 530.131 187.75 525.561 178.279 C 520.975 168.517 514.992 159.447 508.101 151.162 C 502.234 144.043 495.748 137.469 489.151 131.031 L 480.053 122.062 L 489.952 125.625 zM 419.46 114.037 C 428.905 114.13 438.347 114.392 447.791 114.561 C 448.606 115 449.359 115.632 450.15 116.144 C 455.207 119.645 460.289 123.113 465.149 126.886 C 478.736 137.371 491.262 149.348 501.63 163.057 C 508.528 172.255 514.521 182.266 518.26 193.181 C 520.84 200.82 522.293 209.016 521.183 217.069 C 520.49 222.325 518.523 227.4 515.537 231.778 C 515.199 232.221 514.854 232.716 514.298 232.89 C 512.356 231.423 510.737 229.582 509.032 227.856 C 506.425 225.053 503.841 222.225 501.115 219.535 C 492.542 210.929 483.572 202.717 474.214 194.971 C 457.571 181.154 439.684 168.831 420.795 158.288 C 400.152 146.725 378.374 137.277 356.093 129.358 C 353.88 128.532 351.627 127.773 349.507 126.728 C 348.806 126.464 349.528 126.223 349.879 126.063 C 353.481 124.62 357.222 123.557 360.934 122.44 C 373.943 118.621 387.24 115.48 400.8 114.543 C 407.008 114.085 413.237 114.001 419.46 114.037 z"/>
</g>

</svg>